<svg width="974" height="97" viewBox="0 0 974 97" fill="none" xmlns="http://www.w3.org/2000/svg">
<path d="M0.545455 18.1364V1.90909H77V18.1364H48.5V95H29.0455V18.1364H0.545455ZM89.5909 95V1.90909H152.318V18.1364H109.273V40.3182H149.091V56.5455H109.273V78.7727H152.5V95H89.5909ZM200.966 95H167.966V1.90909H201.239C210.602 1.90909 218.663 3.77273 225.42 7.5C232.178 11.197 237.375 16.5151 241.011 23.4545C244.678 30.3939 246.511 38.697 246.511 48.3636C246.511 58.0606 244.678 66.3939 241.011 73.3636C237.375 80.3333 232.148 85.6818 225.33 89.4091C218.542 93.1364 210.42 95 200.966 95ZM187.648 78.1364H200.148C205.966 78.1364 210.86 77.1061 214.83 75.0455C218.83 72.9545 221.83 69.7273 223.83 65.3636C225.86 60.9697 226.875 55.303 226.875 48.3636C226.875 41.4848 225.86 35.8636 223.83 31.5C221.83 27.1364 218.845 23.9242 214.875 21.8636C210.905 19.803 206.011 18.7727 200.193 18.7727H187.648V78.1364ZM294.091 95H261.091V1.90909H294.364C303.727 1.90909 311.788 3.77273 318.545 7.5C325.303 11.197 330.5 16.5151 334.136 23.4545C337.803 30.3939 339.636 38.697 339.636 48.3636C339.636 58.0606 337.803 66.3939 334.136 73.3636C330.5 80.3333 325.273 85.6818 318.455 89.4091C311.667 93.1364 303.545 95 294.091 95ZM280.773 78.1364H293.273C299.091 78.1364 303.985 77.1061 307.955 75.0455C311.955 72.9545 314.955 69.7273 316.955 65.3636C318.985 60.9697 320 55.303 320 48.3636C320 41.4848 318.985 35.8636 316.955 31.5C314.955 27.1364 311.97 23.9242 308 21.8636C304.03 19.803 299.136 18.7727 293.318 18.7727H280.773V78.1364ZM373.898 1.90909V95H354.216V1.90909H373.898ZM390.091 95V1.90909H452.818V18.1364H409.773V40.3182H449.591V56.5455H409.773V78.7727H453V95H390.091ZM498.091 95V1.90909H535.364C542.212 1.90909 547.924 2.92424 552.5 4.95454C557.076 6.98485 560.515 9.80303 562.818 13.4091C565.121 16.9848 566.273 21.1061 566.273 25.7727C566.273 29.4091 565.545 32.6061 564.091 35.3636C562.636 38.0909 560.636 40.3333 558.091 42.0909C555.576 43.8182 552.697 45.0455 549.455 45.7727V46.6818C553 46.8333 556.318 47.8333 559.409 49.6818C562.53 51.5303 565.061 54.1212 567 57.4545C568.939 60.7576 569.909 64.697 569.909 69.2727C569.909 74.2121 568.682 78.6212 566.227 82.5C563.803 86.3485 560.212 89.3939 555.455 91.6364C550.697 93.8788 544.833 95 537.864 95H498.091ZM517.773 78.9091H533.818C539.303 78.9091 543.303 77.8636 545.818 75.7727C548.333 73.6515 549.591 70.8333 549.591 67.3182C549.591 64.7424 548.97 62.4697 547.727 60.5C546.485 58.5303 544.712 56.9848 542.409 55.8636C540.136 54.7424 537.424 54.1818 534.273 54.1818H517.773V78.9091ZM517.773 40.8636H532.364C535.061 40.8636 537.455 40.3939 539.545 39.4545C541.667 38.4848 543.333 37.1212 544.545 35.3636C545.788 33.6061 546.409 31.5 546.409 29.0455C546.409 25.6818 545.212 22.9697 542.818 20.9091C540.455 18.8485 537.091 17.8182 532.727 17.8182H517.773V40.8636ZM582.716 95V1.90909H619.443C626.473 1.90909 632.473 3.16666 637.443 5.68182C642.443 8.16666 646.246 11.697 648.852 16.2727C651.489 20.8182 652.807 26.1667 652.807 32.3182C652.807 38.5 651.473 43.8182 648.807 48.2727C646.14 52.697 642.277 56.0909 637.216 58.4545C632.186 60.8182 626.095 62 618.943 62H594.352V46.1818H615.761C619.519 46.1818 622.64 45.6667 625.125 44.6364C627.61 43.6061 629.458 42.0606 630.67 40C631.913 37.9394 632.534 35.3788 632.534 32.3182C632.534 29.2273 631.913 26.6212 630.67 24.5C629.458 22.3788 627.595 20.7727 625.08 19.6818C622.595 18.5606 619.458 18 615.67 18H602.398V95H582.716ZM632.989 52.6364L656.125 95H634.398L611.761 52.6364H632.989ZM752.261 48.4545C752.261 58.6061 750.337 67.2424 746.489 74.3636C742.67 81.4848 737.458 86.9242 730.852 90.6818C724.277 94.4091 716.883 96.2727 708.67 96.2727C700.398 96.2727 692.973 94.3939 686.398 90.6364C679.822 86.8788 674.625 81.4394 670.807 74.3182C666.989 67.197 665.08 58.5758 665.08 48.4545C665.08 38.303 666.989 29.6667 670.807 22.5455C674.625 15.4242 679.822 10 686.398 6.27273C692.973 2.51515 700.398 0.63636 708.67 0.63636C716.883 0.63636 724.277 2.51515 730.852 6.27273C737.458 10 742.67 15.4242 746.489 22.5455C750.337 29.6667 752.261 38.303 752.261 48.4545ZM732.307 48.4545C732.307 41.8788 731.322 36.3333 729.352 31.8182C727.413 27.303 724.67 23.8788 721.125 21.5455C717.58 19.2121 713.428 18.0455 708.67 18.0455C703.913 18.0455 699.761 19.2121 696.216 21.5455C692.67 23.8788 689.913 27.303 687.943 31.8182C686.004 36.3333 685.034 41.8788 685.034 48.4545C685.034 55.0303 686.004 60.5758 687.943 65.0909C689.913 69.6061 692.67 73.0303 696.216 75.3636C699.761 77.697 703.913 78.8636 708.67 78.8636C713.428 78.8636 717.58 77.697 721.125 75.3636C724.67 73.0303 727.413 69.6061 729.352 65.0909C731.322 60.5758 732.307 55.0303 732.307 48.4545ZM784.295 95L757.659 1.90909H779.159L794.568 66.5909H795.341L812.341 1.90909H830.75L847.705 66.7273H848.523L863.932 1.90909H885.432L858.795 95H839.614L821.886 34.1364H821.159L803.477 95H784.295ZM973.83 1.90909V95H956.83L916.33 36.4091H915.648V95H895.966V1.90909H913.239L953.42 60.4545H954.239V1.90909H973.83Z" fill="black"/>
</svg>
